<svg xmlns="http://www.w3.org/2000/svg" viewBox="0 0 512 512" role="img" aria-label="Sello 1">
  <defs>
    <linearGradient id="grad" x1="0" x2="1" y1="0" y2="1">
      <stop offset="0%" stop-color="hsl(238 92% 70%)"/>
      <stop offset="100%" stop-color="hsl(238 72% 48%)"/>
    </linearGradient>
  </defs>
  <g opacity=".92"><path d="M256 54l38 42 55-13 16 55 55 16-13 55 42 38-42 38 13 55-55 16-16 55-55-13-38 42-38-42-55 13-16-55-55-16 13-55-42-38 42-38-13-55 55-16 16-55 55 13 38-42z" fill="url(#grad)" stroke="#fff" stroke-width="16" stroke-linejoin="round"/><g transform="translate(168 104) scale(.34)" opacity=".98"><g opacity=".94"><circle cx="256" cy="236" r="86" fill="#fff" stroke="url(#grad)" stroke-width="18"/><path d="M256 174l42 30-16 50h-52l-16-50 42-30zM182 236l48 18M330 254l50-18M224 314l22-60M288 314l-22-60" fill="none" stroke="hsl(238 72% 32%)" stroke-width="14" stroke-linecap="round" stroke-linejoin="round"/><path d="M96 344h320M118 384h276M142 344v40M202 344v40M262 344v40M322 344v40M382 344v40" stroke="url(#grad)" stroke-width="14" stroke-linecap="round" opacity=".75"/></g></g><text x="256" y="350" text-anchor="middle" font-family="Arial, sans-serif" font-size="46" font-weight="900" fill="#fff">GOLAZO</text></g>
</svg>
