<svg xmlns="http://www.w3.org/2000/svg" viewBox="0 0 512 512" role="img" aria-label="Sello 2">
  <defs>
    <linearGradient id="grad" x1="0" x2="1" y1="0" y2="1">
      <stop offset="0%" stop-color="hsl(247 92% 70%)"/>
      <stop offset="100%" stop-color="hsl(247 72% 48%)"/>
    </linearGradient>
  </defs>
  <g opacity=".92"><path d="M256 54l38 42 55-13 16 55 55 16-13 55 42 38-42 38 13 55-55 16-16 55-55-13-38 42-38-42-55 13-16-55-55-16 13-55-42-38 42-38-13-55 55-16 16-55 55 13 38-42z" fill="url(#grad)" stroke="#fff" stroke-width="16" stroke-linejoin="round"/><g transform="translate(168 104) scale(.34)" opacity=".98"><g opacity=".94"><path d="M104 270c28-86 88-134 170-134 70 0 116 36 134 100-54-26-92-18-116 24 34 8 58 28 72 60-72 2-132-16-180-54l-36 62-44-58z" fill="url(#grad)" stroke="#fff" stroke-width="16" stroke-linejoin="round"/><circle cx="308" cy="204" r="14" fill="#fff"/><path d="M126 356h236M170 356l-30 48M250 356l-16 48M330 356l28 48" stroke="hsl(247 72% 32%)" stroke-width="18" stroke-linecap="round"/></g></g><text x="256" y="350" text-anchor="middle" font-family="Arial, sans-serif" font-size="46" font-weight="900" fill="#fff">FOSIL</text></g>
</svg>
