<svg xmlns="http://www.w3.org/2000/svg" viewBox="0 0 512 512" role="img" aria-label="Sello 1">
  <defs>
    <linearGradient id="grad" x1="0" x2="1" y1="0" y2="1">
      <stop offset="0%" stop-color="hsl(29 92% 70%)"/>
      <stop offset="100%" stop-color="hsl(29 72% 48%)"/>
    </linearGradient>
  </defs>
  <g opacity=".92"><path d="M256 54l38 42 55-13 16 55 55 16-13 55 42 38-42 38 13 55-55 16-16 55-55-13-38 42-38-42-55 13-16-55-55-16 13-55-42-38 42-38-13-55 55-16 16-55 55 13 38-42z" fill="url(#grad)" stroke="#fff" stroke-width="16" stroke-linejoin="round"/><g transform="translate(168 104) scale(.34)" opacity=".98"><g opacity=".94"><circle cx="256" cy="242" r="94" fill="url(#grad)" stroke="#fff" stroke-width="16"/><path d="M184 164l-52-70 8 96M328 164l52-70-8 96" fill="url(#grad)" stroke="#fff" stroke-width="14" stroke-linejoin="round"/><circle cx="222" cy="226" r="14" fill="#fff"/><circle cx="290" cy="226" r="14" fill="#fff"/><path d="M232 270c18 16 30 16 48 0M184 278l-64-16M188 306l-62 16M328 278l64-16M324 306l62 16" fill="none" stroke="hsl(29 72% 32%)" stroke-width="14" stroke-linecap="round"/></g></g><text x="256" y="350" text-anchor="middle" font-family="Arial, sans-serif" font-size="46" font-weight="900" fill="#fff">EXPLORAD</text></g>
</svg>
