<svg xmlns="http://www.w3.org/2000/svg" viewBox="0 0 512 512" role="img" aria-label="Bocadillo 1">
  <defs>
    <linearGradient id="grad" x1="0" x2="1" y1="0" y2="1">
      <stop offset="0%" stop-color="hsl(29 92% 70%)"/>
      <stop offset="100%" stop-color="hsl(29 72% 48%)"/>
    </linearGradient>
  </defs>
  <g transform="translate(48 34) scale(.28)" opacity=".92"><g opacity=".94"><path d="M120 374l198-198" stroke="url(#grad)" stroke-width="28" stroke-linecap="round"/><path d="M306 76l28 62 68 8-50 46 14 68-60-34-60 34 14-68-50-46 68-8 28-62z" fill="url(#grad)" stroke="#fff" stroke-width="14" stroke-linejoin="round"/><path d="M136 134l24 24M86 238h46M382 330l32 32M382 114h44" stroke="url(#grad)" stroke-width="18" stroke-linecap="round"/></g></g><path d="M78 132c0-44 36-80 80-80h196c44 0 80 36 80 80v104c0 44-36 80-80 80H242l-88 92 20-92h-16c-44 0-80-36-80-80V132z" fill="#fff" opacity=".86" stroke="url(#grad)" stroke-width="20" stroke-linejoin="round"/><text x="256" y="210" text-anchor="middle" font-family="Arial, sans-serif" font-size="58" font-weight="900" fill="hsl(29 72% 36%)">ABRACAD</text>
</svg>
