<svg xmlns="http://www.w3.org/2000/svg" viewBox="0 0 512 512" role="img" aria-label="Bocadillo 2">
  <defs>
    <linearGradient id="grad" x1="0" x2="1" y1="0" y2="1">
      <stop offset="0%" stop-color="hsl(311 92% 70%)"/>
      <stop offset="100%" stop-color="hsl(311 72% 48%)"/>
    </linearGradient>
  </defs>
  <g transform="translate(48 34) scale(.28)" opacity=".92"><g opacity=".94"><path d="M276 78c58 44 84 114 72 196l-64 24-70-70 24-64c8-28 20-56 38-86z" fill="url(#grad)" stroke="#fff" stroke-width="16" stroke-linejoin="round"/><circle cx="292" cy="172" r="34" fill="#fff" opacity=".9"/><path d="M222 230l-74 36 54 54 36-74M172 342c52-24 114-24 168 0M86 146c58-30 124-38 192-20M350 376c44-36 70-82 76-140" fill="none" stroke="url(#grad)" stroke-width="20" stroke-linecap="round" opacity=".7"/></g></g><path d="M78 132c0-44 36-80 80-80h196c44 0 80 36 80 80v104c0 44-36 80-80 80H242l-88 92 20-92h-16c-44 0-80-36-80-80V132z" fill="#fff" opacity=".86" stroke="url(#grad)" stroke-width="20" stroke-linejoin="round"/><text x="256" y="210" text-anchor="middle" font-family="Arial, sans-serif" font-size="58" font-weight="900" fill="hsl(311 72% 36%)">ORBITA</text>
</svg>
